<svg width="110" height="70" viewBox="0 0 110 70" fill="none" xmlns="http://www.w3.org/2000/svg">
<path d="M38.1592 0L29.0771 31.4209C35.1807 22.2412 39.7461 15.9668 42.7734 12.5977C47.2168 7.71484 51.0498 4.39453 54.2725 2.63672C57.4951 0.878906 60.5225 0 63.3545 0C65.8936 0 68.0664 0.952148 69.873 2.85645C71.6797 4.71191 72.583 7.15332 72.583 10.1807C72.583 12.915 71.9971 16.2354 70.8252 20.1416L61.4502 51.416C60.6689 54.1504 60.2783 55.9326 60.2783 56.7627C60.2783 57.251 60.4492 57.6904 60.791 58.0811C61.1816 58.4717 61.5723 58.667 61.9629 58.667C62.4512 58.667 62.9639 58.4717 63.501 58.0811C65.21 56.665 66.9434 54.6631 68.7012 52.0752C69.1406 51.3916 69.8486 50.3662 70.8252 48.999L73.6084 50.6836C66.4307 62.7441 58.8867 68.7744 50.9766 68.7744C47.9492 68.7744 45.5811 67.9932 43.8721 66.4307C42.1631 64.8682 41.3086 62.915 41.3086 60.5713C41.3086 58.5205 41.8945 55.4688 43.0664 51.416L52.2217 20.1416C52.8564 18.0908 53.1738 16.5771 53.1738 15.6006C53.1738 15.0635 52.9541 14.5996 52.5146 14.209C52.0752 13.7695 51.5625 13.5498 50.9766 13.5498C49.1211 13.5498 46.875 14.8193 44.2383 17.3584C37.5 23.8037 30.9814 33.3984 24.6826 46.1426L18.6768 67.8955H0L13.6963 20.874C15.0146 16.2354 15.6738 12.9395 15.6738 10.9863C15.6738 10.1562 15.4785 9.47266 15.0879 8.93555C14.6973 8.34961 14.0625 7.91016 13.1836 7.61719C12.3047 7.27539 10.6445 7.10449 8.20312 7.10449L9.00879 4.32129L33.6914 0H38.1592Z" fill="#A70000"/>
<path d="M92.0645 48.999H90.209C91.804 40.4053 92.9922 31.665 93.7734 22.7783C94.5547 13.859 95.7591 7.86947 97.3867 4.80957C99.0469 1.71712 101.195 0.170898 103.832 0.170898C105.232 0.170898 106.485 0.789388 107.592 2.02637C108.699 3.26335 109.252 4.76074 109.252 6.51855C109.252 7.95085 108.975 9.52962 108.422 11.2549C107.868 12.9801 106.16 16.8213 103.295 22.7783C98.5423 32.7393 94.7988 41.4795 92.0645 48.999ZM87.5723 53.3447C89.7858 53.3447 91.6576 54.126 93.1875 55.6885C94.75 57.251 95.5312 59.1227 95.5312 61.3037C95.5312 63.5173 94.75 65.4053 93.1875 66.9678C91.625 68.4977 89.7533 69.2627 87.5723 69.2627C85.3587 69.2627 83.4707 68.4977 81.9082 66.9678C80.3783 65.4053 79.6133 63.5173 79.6133 61.3037C79.6133 59.1227 80.3783 57.251 81.9082 55.6885C83.4707 54.126 85.3587 53.3447 87.5723 53.3447Z" fill="#A70000"/>
</svg>
