<svg width="111" height="70" viewBox="0 0 111 70" fill="none" xmlns="http://www.w3.org/2000/svg">
<path d="M39.0635 0.104492L29.9814 31.5254C36.085 22.3457 40.6504 16.0713 43.6777 12.7021C48.1211 7.81934 51.9541 4.49902 55.1768 2.74121C58.3994 0.983398 61.4268 0.104492 64.2588 0.104492C66.7979 0.104492 68.9707 1.05664 70.7773 2.96094C72.584 4.81641 73.4873 7.25781 73.4873 10.2852C73.4873 13.0195 72.9014 16.3398 71.7295 20.2461L62.3545 51.5205C61.5732 54.2549 61.1826 56.0371 61.1826 56.8672C61.1826 57.3555 61.3535 57.7949 61.6953 58.1855C62.0859 58.5762 62.4766 58.7715 62.8672 58.7715C63.3555 58.7715 63.8682 58.5762 64.4053 58.1855C66.1143 56.7695 67.8477 54.7676 69.6055 52.1797C70.0449 51.4961 70.7529 50.4707 71.7295 49.1035L74.5127 50.7881C67.335 62.8486 59.791 68.8789 51.8809 68.8789C48.8535 68.8789 46.4854 68.0977 44.7764 66.5352C43.0674 64.9727 42.2129 63.0195 42.2129 60.6758C42.2129 58.625 42.7988 55.5732 43.9707 51.5205L53.126 20.2461C53.7607 18.1953 54.0781 16.6816 54.0781 15.7051C54.0781 15.168 53.8584 14.7041 53.4189 14.3135C52.9795 13.874 52.4668 13.6543 51.8809 13.6543C50.0254 13.6543 47.7793 14.9238 45.1426 17.4629C38.4043 23.9082 31.8857 33.5029 25.5869 46.2471L19.5811 68H0.904297L14.6006 20.9785C15.9189 16.3398 16.5781 13.0439 16.5781 11.0908C16.5781 10.2607 16.3828 9.57715 15.9922 9.04004C15.6016 8.4541 14.9668 8.01465 14.0879 7.72168C13.209 7.37988 11.5488 7.20898 9.10742 7.20898L9.91309 4.42578L34.5957 0.104492H39.0635Z" fill="white"/>
<path d="M92.9688 49.1035H91.1133C92.7083 40.5098 93.8965 31.7695 94.6777 22.8828C95.459 13.9635 96.6634 7.97396 98.291 4.91406C99.9512 1.82161 102.1 0.275391 104.736 0.275391C106.136 0.275391 107.389 0.89388 108.496 2.13086C109.603 3.36784 110.156 4.86523 110.156 6.62305C110.156 8.05534 109.88 9.63411 109.326 11.3594C108.773 13.0846 107.064 16.9258 104.199 22.8828C99.4466 32.8438 95.7031 41.584 92.9688 49.1035ZM88.4766 53.4492C90.6901 53.4492 92.5618 54.2305 94.0918 55.793C95.6543 57.3555 96.4355 59.2272 96.4355 61.4082C96.4355 63.6217 95.6543 65.5098 94.0918 67.0723C92.5293 68.6022 90.6576 69.3672 88.4766 69.3672C86.263 69.3672 84.375 68.6022 82.8125 67.0723C81.2826 65.5098 80.5176 63.6217 80.5176 61.4082C80.5176 59.2272 81.2826 57.3555 82.8125 55.793C84.375 54.2305 86.263 53.4492 88.4766 53.4492Z" fill="white"/>
</svg>
